<svg width="24" height="24" viewBox="0 0 24 24" fill="none" xmlns="http://www.w3.org/2000/svg">
<path fill-rule="evenodd" clip-rule="evenodd" d="M6.5 4C5.11929 4 4 5.11929 4 6.5C4 7.88071 5.11929 9 6.5 9C7.88071 9 9 7.88071 9 6.5C9 5.11929 7.88071 4 6.5 4ZM2 6.5C2 4.01472 4.01472 2 6.5 2C8.98528 2 11 4.01472 11 6.5C11 8.98528 8.98528 11 6.5 11C4.01472 11 2 8.98528 2 6.5ZM18 2C18.5523 2 19 2.44772 19 3V5H21C21.5523 5 22 5.44772 22 6C22 6.55228 21.5523 7 21 7H19V9C19 9.55228 18.5523 10 18 10C17.4477 10 17 9.55228 17 9V7H15C14.4477 7 14 6.55228 14 6C14 5.44772 14.4477 5 15 5H17V3C17 2.44772 17.4477 2 18 2ZM6.5 15C5.11929 15 4 16.1193 4 17.5C4 18.8807 5.11929 20 6.5 20C7.88071 20 9 18.8807 9 17.5C9 16.1193 7.88071 15 6.5 15ZM2 17.5C2 15.0147 4.01472 13 6.5 13C8.98528 13 11 15.0147 11 17.5C11 19.9853 8.98528 22 6.5 22C4.01472 22 2 19.9853 2 17.5ZM17.5 15C16.1193 15 15 16.1193 15 17.5C15 18.8807 16.1193 20 17.5 20C18.8807 20 20 18.8807 20 17.5C20 16.1193 18.8807 15 17.5 15ZM13 17.5C13 15.0147 15.0147 13 17.5 13C19.9853 13 22 15.0147 22 17.5C22 19.9853 19.9853 22 17.5 22C15.0147 22 13 19.9853 13 17.5Z" fill="black"/>
</svg>
