<svg width="261" height="261" viewBox="0 0 261 261" fill="none" xmlns="http://www.w3.org/2000/svg">
<g opacity="0.79">
<path opacity="0.79" d="M195.648 195.647C231.665 159.63 231.665 101.234 195.648 65.2158C159.63 29.1981 101.234 29.1981 65.2159 65.2158C29.1982 101.234 29.1981 159.63 65.2158 195.648C101.234 231.665 159.63 231.665 195.648 195.647Z" stroke="#FC0808" stroke-width="0.5" stroke-miterlimit="10"/>
<path opacity="0.79" d="M191.051 191.051C224.531 157.572 224.531 103.291 191.051 69.812C157.572 36.3327 103.291 36.3326 69.8121 69.812C36.3328 103.291 36.3327 157.572 69.8121 191.051C103.291 224.531 157.572 224.531 191.051 191.051Z" stroke="#FC0808" stroke-width="0.7273" stroke-miterlimit="10"/>
<path opacity="0.79" d="M130.436 209.66C174.193 209.66 209.666 174.188 209.666 130.43C209.666 86.6728 174.193 51.2003 130.436 51.2003C86.6781 51.2003 51.2056 86.6728 51.2056 130.43C51.2056 174.188 86.6781 209.66 130.436 209.66Z" stroke="#FC0808" stroke-width="0.9545" stroke-miterlimit="10"/>
<path opacity="0.79" d="M130.436 203.17C170.609 203.17 203.176 170.604 203.176 130.43C203.176 90.2572 170.609 57.6903 130.436 57.6903C90.2624 57.6903 57.6956 90.2572 57.6956 130.43C57.6956 170.604 90.2624 203.17 130.436 203.17Z" stroke="#FC0808" stroke-width="1.1818" stroke-miterlimit="10"/>
<path opacity="0.79" d="M130.436 196.67C167.019 196.67 196.676 167.014 196.676 130.43C196.676 93.847 167.019 64.1903 130.436 64.1903C93.8522 64.1903 64.1956 93.847 64.1956 130.43C64.1956 167.014 93.8522 196.67 130.436 196.67Z" stroke="#FC0808" stroke-width="1.4091" stroke-miterlimit="10"/>
<path opacity="0.79" d="M130.436 190.17C163.429 190.17 190.176 163.424 190.176 130.43C190.176 97.4369 163.429 70.6903 130.436 70.6903C97.4421 70.6903 70.6956 97.4369 70.6956 130.43C70.6956 163.424 97.4421 190.17 130.436 190.17Z" stroke="#FC0808" stroke-width="1.6364" stroke-miterlimit="10"/>
<path opacity="0.79" d="M130.436 183.67C159.839 183.67 183.676 159.834 183.676 130.43C183.676 101.027 159.839 77.1903 130.436 77.1903C101.032 77.1903 77.1956 101.027 77.1956 130.43C77.1956 159.834 101.032 183.67 130.436 183.67Z" stroke="#FC0808" stroke-width="1.8636" stroke-miterlimit="10"/>
<path opacity="0.79" d="M130.436 177.17C156.249 177.17 177.176 156.244 177.176 130.43C177.176 104.617 156.249 83.6903 130.436 83.6903C104.622 83.6903 83.6956 104.617 83.6956 130.43C83.6956 156.244 104.622 177.17 130.436 177.17Z" stroke="#FC0808" stroke-width="2.0909" stroke-miterlimit="10"/>
<path opacity="0.79" d="M130.436 170.67C152.659 170.67 170.676 152.654 170.676 130.43C170.676 108.206 152.659 90.1903 130.436 90.1903C108.212 90.1903 90.1956 108.206 90.1956 130.43C90.1956 152.654 108.212 170.67 130.436 170.67Z" stroke="#FC0808" stroke-width="2.3182" stroke-miterlimit="10"/>
<path opacity="0.79" d="M130.436 164.17C149.07 164.17 164.176 149.064 164.176 130.43C164.176 111.796 149.07 96.6903 130.436 96.6903C111.801 96.6903 96.6956 111.796 96.6956 130.43C96.6956 149.064 111.801 164.17 130.436 164.17Z" stroke="#FC0808" stroke-width="2.5454" stroke-miterlimit="10"/>
<path opacity="0.79" d="M130.436 157.67C145.48 157.67 157.676 145.475 157.676 130.43C157.676 115.386 145.48 103.19 130.436 103.19C115.391 103.19 103.196 115.386 103.196 130.43C103.196 145.475 115.391 157.67 130.436 157.67Z" stroke="#FC0808" stroke-width="2.7727" stroke-miterlimit="10"/>
<path opacity="0.79" d="M130.436 151.17C141.89 151.17 151.176 141.885 151.176 130.43C151.176 118.976 141.89 109.69 130.436 109.69C118.981 109.69 109.696 118.976 109.696 130.43C109.696 141.885 118.981 151.17 130.436 151.17Z" stroke="#FC0808" stroke-width="3" stroke-miterlimit="10"/>
</g>
</svg>
