<svg width="24" height="24" viewBox="0 0 24 24" fill="none" xmlns="http://www.w3.org/2000/svg">
<path fill-rule="evenodd" clip-rule="evenodd" d="M18 3C17.6249 3 17.2652 3.149 17 3.41421L15.4142 5C15.149 5.26522 15 5.62493 15 6C15 6.37507 15.149 6.73478 15.4142 7L17 8.58579C17.2652 8.851 17.6249 9 18 9C18.3751 9 18.7348 8.851 19 8.58579L20.5858 7C20.851 6.73478 21 6.37507 21 6C21 5.62493 20.851 5.26522 20.5858 5L19 3.41421C18.7348 3.149 18.3751 3 18 3ZM15.5858 2C16.2261 1.35971 17.0945 1 18 1C18.9055 1 19.7739 1.35971 20.4142 2L22 3.58579C22.6403 4.22607 23 5.09449 23 6C23 6.90551 22.6403 7.77392 22 8.41421L20.4142 10C19.7739 10.6403 18.9055 11 18 11C17.0945 11 16.2261 10.6403 15.5858 10L14 8.41421C13.3597 7.77393 13 6.90551 13 6C13 5.09449 13.3597 4.22608 14 3.58579L15.5858 2ZM2 5C2 3.34315 3.34315 2 5 2H8C9.65685 2 11 3.34315 11 5V8C11 9.65685 9.65685 11 8 11H5C3.34315 11 2 9.65685 2 8V5ZM5 4C4.44772 4 4 4.44772 4 5V8C4 8.55228 4.44772 9 5 9H8C8.55228 9 9 8.55228 9 8V5C9 4.44772 8.55228 4 8 4H5ZM2 16C2 14.3431 3.34315 13 5 13H8C9.65685 13 11 14.3431 11 16V19C11 20.6569 9.65685 22 8 22H5C3.34315 22 2 20.6569 2 19V16ZM5 15C4.44772 15 4 15.4477 4 16V19C4 19.5523 4.44772 20 5 20H8C8.55228 20 9 19.5523 9 19V16C9 15.4477 8.55228 15 8 15H5ZM13 16C13 14.3431 14.3431 13 16 13H19C20.6569 13 22 14.3431 22 16V19C22 20.6569 20.6569 22 19 22H16C14.3431 22 13 20.6569 13 19V16ZM16 15C15.4477 15 15 15.4477 15 16V19C15 19.5523 15.4477 20 16 20H19C19.5523 20 20 19.5523 20 19V16C20 15.4477 19.5523 15 19 15H16Z" fill="black"/>
</svg>
