<svg width="126" height="160" viewBox="0 0 126 160" fill="none" xmlns="http://www.w3.org/2000/svg">
<g clip-path="url(#clip0_210_5)">
<path d="M41.8822 -23.885V9.73567C41.8822 12.2749 43.9406 14.3334 46.4799 14.3334H78.9512C81.4904 14.3334 83.5489 16.3918 83.5489 18.9311V51.4023C83.5489 53.9416 85.6073 56 88.1466 56H120.618C123.157 56 125.216 58.0585 125.216 60.5977V93.069C125.216 95.6082 127.274 97.6667 129.813 97.6667H162.285C164.824 97.6667 166.882 99.7252 166.882 102.264V134.736C166.882 137.275 168.941 139.333 171.48 139.333H205.101M0.215515 -23.885V9.73567C0.215515 12.2749 2.27398 14.3334 4.81322 14.3334H37.2845C39.8237 14.3334 41.8822 16.3918 41.8822 18.9311V51.4023C41.8822 53.9416 43.9406 56 46.4799 56H78.9512C81.4904 56 83.5489 58.0585 83.5489 60.5977V93.069C83.5489 95.6082 81.4904 97.6667 78.9512 97.6667H46.4799C43.9406 97.6667 41.8822 95.6082 41.8822 93.069V60.023L41.842 59.7515C41.5334 57.669 39.7658 56.1141 37.661 56.0736L33.8362 56H4.81322C2.27398 56 0.215515 58.0585 0.215515 60.5977V93.069C0.215515 95.6082 2.27398 97.6667 4.81322 97.6667H37.5718L38.6633 97.7395C40.4747 97.8602 41.8822 99.3647 41.8822 101.18V104.707M41.8822 101.115V134.736C41.8822 137.275 43.9406 139.333 46.4799 139.333H78.9512C81.4904 139.333 83.5489 141.392 83.5489 143.931V176.402C83.5489 178.942 85.6073 181 88.1466 181H120.618C123.157 181 125.216 183.059 125.216 185.598V218.069C125.216 220.608 127.274 222.667 129.813 222.667H162.285C164.824 222.667 166.882 224.725 166.882 227.264V259.736C166.882 262.275 168.941 264.333 171.48 264.333H205.101" stroke="url(#paint0_linear_210_5)" stroke-width="0.431035"/>
</g>
<defs>
<linearGradient id="paint0_linear_210_5" x1="0.215515" y1="-23.885" x2="200.503" y2="223.96" gradientUnits="userSpaceOnUse">
<stop offset="0.0819437" stop-color="#850001"/>
<stop offset="0.208333" stop-color="#850001"/>
<stop offset="0.526042" stop-color="#FF0000"/>
<stop offset="0.9375" stop-color="#FF000F"/>
</linearGradient>
<clipPath id="clip0_210_5">
<rect width="126" height="160" fill="white"/>
</clipPath>
</defs>
</svg>
